HIERARCHY
ROOT Hips
{
	OFFSET 0.000000 89.005402 0.000000
	CHANNELS 6 Xposition Yposition Zposition Xrotation Yrotation Zrotation
	JOINT Spine
	{
		OFFSET 0.116900 10.681000 0.373400
		CHANNELS 3 Xrotation Yrotation Zrotation
		JOINT Spine1
		{
			OFFSET 0.000000 13.840401 0.053500
			CHANNELS 3 Xrotation Yrotation Zrotation
			JOINT Spine2
			{
				OFFSET 0.000000 14.712700 -0.366200
				CHANNELS 3 Xrotation Yrotation Zrotation
				JOINT Neck
				{
					OFFSET 0.000000 35.415497 -3.314200
					CHANNELS 3 Xrotation Yrotation Zrotation
					JOINT Head
					{
						OFFSET 0.000000 16.899200 1.218300
						CHANNELS 3 Xrotation Yrotation Zrotation
						JOINT HeadTop_End
						{
							OFFSET 0.000000 22.206207 2.192500
							CHANNELS 3 Xrotation Yrotation Zrotation
							End Site
							{
								OFFSET 0.000000 22.314178 0.000000
							}
						}
					}
				}
				JOINT LeftShoulder
				{
					OFFSET 12.896400 26.716293 -4.548400
					CHANNELS 3 Xrotation Yrotation Zrotation
					JOINT LeftArm
					{
						OFFSET 19.027000 -4.857010 -1.718400
						CHANNELS 3 Xrotation Yrotation Zrotation
						JOINT LeftForeArm
						{
							OFFSET 24.179897 0.000000 0.000000
							CHANNELS 3 Xrotation Yrotation Zrotation
							JOINT LeftHand
							{
								OFFSET 27.156403 0.000000 0.000000
								CHANNELS 3 Xrotation Yrotation Zrotation
								JOINT LeftHandIndex1
								{
									OFFSET 16.441200 0.000000 0.000000
									CHANNELS 3 Xrotation Yrotation Zrotation
									JOINT LeftHandIndex2
									{
										OFFSET 4.821899 0.000000 0.000000
										CHANNELS 3 Xrotation Yrotation Zrotation
										JOINT LeftHandIndex3
										{
											OFFSET 6.386497 0.000000 0.000000
											CHANNELS 3 Xrotation Yrotation Zrotation
											JOINT LeftHandIndex4
											{
												OFFSET 5.188988 0.000000 0.000000
												CHANNELS 3 Xrotation Yrotation Zrotation
												End Site
												{
													OFFSET -0.178703 5.185913 0.000177
												}
											}
										}
									}
								}
								JOINT LeftHandThumb1
								{
									OFFSET 6.534897 -5.032593 5.900300
									CHANNELS 3 Xrotation Yrotation Zrotation
									JOINT LeftHandThumb2
									{
										OFFSET 3.818176 -2.204422 2.204423
										CHANNELS 3 Xrotation Yrotation Zrotation
										JOINT LeftHandThumb3
										{
											OFFSET 3.252098 -1.877594 1.877601
											CHANNELS 3 Xrotation Yrotation Zrotation
											JOINT LeftHandThumb4
											{
												OFFSET 5.251778 -3.032120 3.032117
												CHANNELS 3 Xrotation Yrotation Zrotation
												End Site
												{
													OFFSET 0.000023 6.780014 0.000000
												}
											}
										}
									}
								}
							}
						}
					}
				}
				JOINT RightShoulder
				{
					OFFSET -12.896300 26.716293 -4.548400
					CHANNELS 3 Xrotation Yrotation Zrotation
					JOINT RightArm
					{
						OFFSET -19.027000 -4.857010 -1.718400
						CHANNELS 3 Xrotation Yrotation Zrotation
						JOINT RightForeArm
						{
							OFFSET -24.179897 0.000000 0.000000
							CHANNELS 3 Xrotation Yrotation Zrotation
							JOINT RightHand
							{
								OFFSET -27.156403 0.000000 0.000000
								CHANNELS 3 Xrotation Yrotation Zrotation
								JOINT RightHandThumb1
								{
									OFFSET -6.591202 -4.852203 5.988100
									CHANNELS 3 Xrotation Yrotation Zrotation
									JOINT RightHandThumb2
									{
										OFFSET -3.818176 -2.204422 2.204423
										CHANNELS 3 Xrotation Yrotation Zrotation
										JOINT RightHandThumb3
										{
											OFFSET -3.252098 -1.877594 1.877601
											CHANNELS 3 Xrotation Yrotation Zrotation
											JOINT RightHandThumb4
											{
												OFFSET -5.251778 -3.032120 3.032117
												CHANNELS 3 Xrotation Yrotation Zrotation
												End Site
												{
													OFFSET -0.000023 6.780014 0.000000
												}
											}
										}
									}
								}
								JOINT RightHandIndex1
								{
									OFFSET -16.029404 0.000000 0.000000
									CHANNELS 3 Xrotation Yrotation Zrotation
									JOINT RightHandIndex2
									{
										OFFSET -5.213303 0.000000 0.000000
										CHANNELS 3 Xrotation Yrotation Zrotation
										JOINT RightHandIndex3
										{
											OFFSET -6.386528 0.000000 0.000000
											CHANNELS 3 Xrotation Yrotation Zrotation
											JOINT RightHandIndex4
											{
												OFFSET -5.189026 0.000000 0.000000
												CHANNELS 3 Xrotation Yrotation Zrotation
												End Site
												{
													OFFSET 0.236702 5.183624 0.001972
												}
											}
										}
									}
								}
							}
						}
					}
				}
			}
		}
	}
	JOINT LeftUpLeg
	{
		OFFSET 14.073000 -7.904099 -1.463000
		CHANNELS 3 Xrotation Yrotation Zrotation
		JOINT LeftLeg
		{
			OFFSET -0.109806 -34.073280 4.093200
			CHANNELS 3 Xrotation Yrotation Zrotation
			JOINT LeftFoot
			{
				OFFSET 0.109806 -29.899420 -6.319000
				CHANNELS 3 Xrotation Yrotation Zrotation
				JOINT LeftToeBase
				{
					OFFSET 1.551100 -14.988700 20.535801
					CHANNELS 3 Xrotation Yrotation Zrotation
					JOINT LeftToe_End
					{
						OFFSET 0.221200 0.570800 13.248301
						CHANNELS 3 Xrotation Yrotation Zrotation
						End Site
						{
							OFFSET 0.000000 13.262435 0.000000
						}
					}
				}
			}
		}
	}
	JOINT RightUpLeg
	{
		OFFSET -13.839300 -7.904099 -1.463000
		CHANNELS 3 Xrotation Yrotation Zrotation
		JOINT RightLeg
		{
			OFFSET 0.109694 -34.073219 4.093300
			CHANNELS 3 Xrotation Yrotation Zrotation
			JOINT RightFoot
			{
				OFFSET -0.109694 -29.899384 -6.319200
				CHANNELS 3 Xrotation Yrotation Zrotation
				JOINT RightToeBase
				{
					OFFSET -1.551100 -14.988700 20.535801
					CHANNELS 3 Xrotation Yrotation Zrotation
					JOINT RightToe_End
					{
						OFFSET -0.221200 0.570900 13.248299
						CHANNELS 3 Xrotation Yrotation Zrotation
						End Site
						{
							OFFSET 0.000000 13.262440 0.000000
						}
					}
				}
			}
		}
	}
}
MOTION
Frames: 9
Frame Time: 0.033333
-0.132561 84.931763 2.229953 -5.082174 6.444538 1.609443 -0.168554 9.002265 -7.936152 5.275013 1.243181 2.796438 5.199995 1.336658 2.889595 1.970922 1.812730 2.380357 -30.093807 2.026379 16.116489 0.000001 -0.000000 -0.000003 0.627052 -4.462845 -4.223408 47.535296 -10.838638 -49.668518 0.000039 -113.934488 0.000025 41.283654 9.677733 -13.523166 2.940838 -16.408642 9.758658 -0.000007 0.000005 -0.000023 0.000082 0.032674 -0.270704 0.000002 0.000001 0.000001 7.481503 -19.911064 -25.314546 5.106571 7.738919 -0.850447 -0.577825 6.895360 9.272602 -0.000000 -0.000002 0.000002 0.781592 0.830406 6.702578 -23.750779 -7.671674 48.297586 -0.000069 102.888535 0.000026 4.220406 7.431061 10.692099 -15.482381 -12.070669 -20.462289 3.091911 -9.793283 0.793548 -3.893996 4.618230 -3.172692 0.000000 0.000000 0.000000 0.190336 6.167199 -1.448620 0.100431 -1.179947 9.730204 0.094141 -1.142626 9.419554 0.000000 -0.000002 -0.000002 -1.124729 6.708103 -6.405898 26.196607 -4.721314 3.189237 -19.895921 26.520684 5.786746 -7.295162 0.000033 0.000003 0.000000 -0.000002 -0.000000 -14.365956 -7.962339 -16.400181 21.083568 -7.759446 -3.843605 4.922585 -11.108537 15.764522 -5.292865 -0.000004 -0.000004 -0.000000 0.000002 0.000000 
-0.111261 84.923065 2.274940 -5.020621 6.480982 1.518437 -0.292115 8.776353 -8.044886 5.160850 1.217743 2.980481 5.084401 1.308517 3.070137 2.081408 1.805924 2.614177 -29.711880 1.641038 17.118611 -0.000000 0.000000 0.000000 0.627785 -4.448870 -4.268225 47.843860 -11.051215 -49.549635 0.000002 -113.779853 -0.000009 40.702894 9.673594 -13.346080 2.908150 -16.226301 9.771797 -0.000004 0.000003 -0.000020 0.000007 -0.001734 0.014509 -0.000001 -0.000001 -0.000002 7.500903 -19.849426 -24.683923 4.997930 8.012761 -0.788169 -0.630923 5.891802 9.395852 -0.000001 -0.000001 -0.000002 0.778317 0.636172 6.712937 -22.931844 -10.569073 47.670872 0.000201 102.801198 -0.000220 2.603204 5.649107 6.343962 -15.071823 -14.259628 -21.376626 3.091925 -9.793304 0.793526 -4.230958 5.273115 -3.183000 0.000001 -0.000000 0.000001 0.242409 5.443617 -2.319522 0.026850 -0.611744 5.026237 0.014792 -0.454156 3.729326 0.000000 0.000002 -0.000002 -1.215914 6.713609 -6.318940 26.316147 -4.707233 3.206696 -19.986107 26.460774 5.779712 -7.260868 0.000024 0.000002 0.000000 -0.000000 -0.000000 -14.361239 -8.018097 -16.331715 21.055568 -7.758346 -3.824725 4.895778 -11.109861 15.745567 -5.307603 0.000004 -0.000005 -0.000000 -0.000001 0.000000 
-0.087992 84.905487 2.309454 -5.012795 6.431630 1.486971 -0.392531 8.557231 -8.122995 5.056808 1.193720 3.167062 4.979067 1.281614 3.253552 2.326782 1.834296 2.645325 -29.187034 1.466944 17.721940 -0.000002 -0.000003 -0.000002 0.630697 -4.442900 -4.376294 48.087093 -11.163707 -49.455173 -0.000015 -113.649929 0.000005 40.201684 9.660950 -13.182783 2.917399 -16.277965 9.768060 -0.000004 0.000004 -0.000025 0.000102 0.036055 -0.298674 0.000003 0.000002 -0.000001 7.504233 -19.818137 -24.373257 4.933630 8.240668 -0.738806 -0.660565 5.267630 9.471387 -0.000000 0.000003 0.000001 0.785223 0.597453 6.771345 -21.580531 -13.132186 47.154158 0.000068 102.889184 -0.000082 -0.181012 3.816252 1.377258 -14.119400 -15.985542 -22.147918 3.091893 -9.793287 0.793524 -4.073381 4.973472 -3.233873 -0.000000 -0.000001 0.000002 0.217131 4.861972 -2.371030 0.012896 -0.424242 3.483474 0.000436 -0.077862 0.638827 -0.000002 -0.000000 0.000001 -1.220543 6.688712 -6.317711 26.394207 -4.631913 3.229123 -20.063790 26.444085 5.760609 -7.242139 -0.000028 -0.000001 0.000000 -0.000001 -0.000000 -14.393206 -8.028258 -16.355882 21.126750 -7.742911 -3.763647 4.842099 -11.052703 15.717647 -5.328429 0.000019 0.000007 -0.000000 -0.000001 0.000000 
-0.065291 84.880402 2.334167 -5.037037 6.318097 1.511394 -0.491555 8.426123 -8.167987 4.981427 1.181334 3.326967 4.902189 1.266607 3.411592 2.595276 1.869159 2.551324 -28.584202 1.398894 18.030371 -0.000000 -0.000000 -0.000000 0.636671 -4.471950 -4.529393 48.210877 -11.181231 -49.365404 -0.000007 -113.539348 -0.000004 40.009824 9.599542 -13.107477 2.973774 -16.592415 9.745496 -0.000003 0.000006 -0.000025 0.002018 0.167065 -1.384316 -0.000003 0.000000 0.000002 7.499975 -19.819225 -24.395361 4.915586 8.390847 -0.708183 -0.669597 5.063953 9.495634 0.000002 -0.000001 -0.000000 0.797022 0.674188 6.846651 -19.720590 -15.593334 46.782332 0.000057 103.206836 -0.000086 -3.840929 2.246491 -3.562221 -13.122497 -17.177980 -22.743374 3.091901 -9.793317 0.793531 -3.610333 4.081560 -3.342973 0.000000 0.000000 -0.000001 0.202545 4.570352 -2.373309 0.013296 -0.430652 3.536311 0.000419 -0.076971 0.631609 -0.000001 0.000001 -0.000002 -1.162592 6.678433 -6.392263 26.437934 -4.613846 3.246469 -20.148146 26.525525 5.784119 -7.243039 -0.000002 0.000001 0.000000 0.000001 0.000000 -14.492748 -8.060985 -16.443044 21.275676 -7.724313 -3.750562 4.779675 -10.891414 15.721277 -5.355439 0.000009 0.000006 -0.000000 -0.000001 0.000000 
-0.041294 84.852280 2.354451 -5.088631 6.173118 1.577744 -0.608132 8.371320 -8.195114 4.949366 1.179229 3.466240 4.868351 1.262484 3.550349 2.825564 1.912918 2.403897 -28.017130 1.501121 18.087130 -0.000000 0.000001 0.000000 0.646769 -4.569533 -4.710109 48.265030 -11.129788 -49.246630 0.000015 -113.445460 0.000042 39.746431 9.558276 -13.030347 3.040925 -16.967175 9.719009 -0.000004 0.000002 -0.000023 0.007071 0.312738 -2.592312 0.000000 -0.000000 0.000002 7.500542 -19.824349 -24.443565 4.905099 8.494907 -0.687232 -0.674259 4.954421 9.508338 -0.000000 -0.000001 0.000002 0.809215 0.816821 6.913752 -17.533051 -17.631785 46.688561 0.000112 103.773222 -0.000136 -7.634984 1.117151 -7.791792 -12.447506 -17.882197 -23.137131 3.091914 -9.793304 0.793524 -3.087883 3.056598 -3.475532 -0.000001 0.000001 0.000004 0.205401 4.492483 -2.467028 0.013740 -0.437902 3.595755 0.000620 -0.093674 0.768639 0.000001 -0.000001 0.000000 -1.047632 6.692127 -6.526040 26.447193 -4.671134 3.263184 -20.238627 26.698711 5.854883 -7.251657 -0.000011 -0.000004 -0.000000 -0.000001 -0.000000 -14.637466 -8.166959 -16.565690 21.458851 -7.713352 -3.823490 4.709541 -10.606887 15.756181 -5.383019 0.000009 0.000001 -0.000000 -0.000001 -0.000000 
-0.014108 84.826263 2.373917 -5.175560 6.032681 1.667999 -0.726647 8.276437 -8.211279 4.956112 1.171291 3.588956 4.874201 1.253103 3.672722 3.015968 1.993013 2.226239 -27.554684 1.869204 17.994912 -0.000001 0.000003 0.000000 0.658632 -4.709826 -4.886611 48.357978 -11.014558 -49.111751 0.000068 -113.391194 0.000068 39.352435 9.530432 -12.921250 3.047351 -17.003070 9.716491 -0.000000 0.000004 -0.000024 0.008507 0.342861 -2.842240 -0.000000 -0.000002 -0.000002 7.522126 -19.797438 -24.122220 4.854566 8.558012 -0.671641 -0.691808 4.529852 9.558390 -0.000001 0.000000 0.000003 0.820449 0.965284 6.972549 -15.430301 -18.731568 46.926043 -0.000056 104.340873 0.000057 -10.723709 0.441848 -10.583323 -12.174467 -18.191919 -23.337771 3.091914 -9.793305 0.793521 -2.695207 2.264096 -3.578394 0.000000 0.000000 0.000004 0.211659 4.505057 -2.544715 0.015116 -0.459105 3.770099 0.001196 -0.129696 1.064088 -0.000002 -0.000001 0.000000 -0.877868 6.690534 -6.689016 26.420128 -4.691428 3.278709 -20.310314 26.867688 5.918219 -7.254839 0.000035 0.000005 -0.000000 -0.000003 -0.000000 -14.757578 -8.299899 -16.705003 21.643281 -7.709981 -3.932493 4.625721 -10.285959 15.796139 -5.403852 -0.000007 0.000006 -0.000000 -0.000001 0.000000 
0.015428 84.804962 2.390875 -5.296575 5.920112 1.761620 -0.803048 8.050368 -8.201981 4.973836 1.144066 3.678563 4.893247 1.224694 3.760899 3.184640 2.112498 2.028957 -27.186388 2.438330 17.887412 -0.000000 0.000002 0.000000 0.667252 -4.814799 -5.011166 48.538306 -10.854826 -49.009920 0.000051 -113.363921 0.000013 39.179864 9.437045 -12.852901 2.932565 -16.362565 9.761959 -0.000003 0.000005 -0.000023 0.003012 0.203764 -1.688823 -0.000000 0.000001 -0.000003 7.574962 -19.726539 -23.265219 4.751331 8.463964 -0.682878 -0.723691 3.688259 9.658144 0.000001 0.000000 0.000000 0.830271 1.055663 7.031007 -13.852006 -18.758770 47.357414 0.000045 104.709587 -0.000073 -12.489990 0.148949 -11.338496 -12.180369 -18.250610 -23.395954 3.091892 -9.793300 0.793523 -2.509230 1.874774 -3.624988 -0.000000 -0.000000 0.000000 0.213777 4.533976 -2.552583 0.014194 -0.444716 3.651761 0.000773 -0.104349 0.856396 -0.000001 -0.000001 -0.000000 -0.675897 6.637843 -6.843079 26.368671 -4.573195 3.283655 -20.343568 26.939830 5.924708 -7.250103 0.000005 -0.000000 -0.000000 -0.000001 0.000000 -14.785816 -8.342227 -16.842077 21.811661 -7.703913 -3.986633 4.537341 -10.084900 15.824375 -5.414931 0.000007 0.000003 -0.000000 0.000001 0.000000 
0.045608 84.787445 2.401554 -5.430426 5.830068 1.839449 -0.819559 7.744113 -8.155928 4.978884 1.104124 3.723856 4.901379 1.183560 3.803774 3.337481 2.231909 1.848449 -26.886932 2.991713 17.812927 -0.000000 0.000001 0.000001 0.669704 -4.837415 -5.053072 48.740701 -10.720521 -48.960517 0.000060 -113.316684 0.000079 39.203606 9.301207 -12.819235 2.700041 -15.067988 9.857533 -0.000003 0.000005 -0.000022 0.000055 -0.027258 0.225942 -0.000000 -0.000001 -0.000002 7.644571 -19.633664 -22.091801 4.632312 8.081574 -0.749093 -0.754742 2.746981 9.770738 0.000001 -0.000000 0.000000 0.837732 1.083288 7.082542 -12.998166 -18.213234 47.741988 -0.000013 104.852263 -0.000029 -12.930236 0.139188 -10.369539 -12.237723 -18.235475 -23.394928 3.091893 -9.793304 0.793517 -2.491680 1.831236 -3.627502 0.000000 -0.000000 -0.000004 0.212518 4.546433 -2.526332 0.013219 -0.429330 3.525296 0.000422 -0.077047 0.632315 0.000001 0.000004 -0.000001 -0.479765 6.550630 -6.965559 26.320069 -4.357935 3.277211 -20.354256 26.927737 5.888850 -7.241441 -0.000003 0.000000 -0.000000 0.000001 0.000000 -14.719952 -8.230438 -16.954396 21.954895 -7.687643 -3.950423 4.467271 -10.075402 15.844661 -5.418918 -0.000001 0.000008 -0.000000 0.000001 0.000000 
0.074674 84.772583 2.405790 -5.550370 5.736027 1.895212 -0.806417 7.499107 -8.088930 4.971905 1.071499 3.735897 4.897307 1.149817 3.813687 3.468082 2.306628 1.728959 -26.642317 3.344613 17.739029 -0.000002 -0.000000 -0.000002 0.667636 -4.807321 -5.028819 48.861517 -10.672936 -48.934829 -0.000005 -113.216826 -0.000004 39.288402 9.160379 -12.787463 2.412928 -13.476808 9.981691 -0.000003 0.000004 -0.000023 0.004247 -0.242115 2.006640 0.000001 0.000001 0.000003 7.698094 -19.552195 -21.027224 4.554123 7.408447 -0.875420 -0.771499 2.180552 9.840651 0.000000 -0.000001 -0.000002 0.842010 1.098890 7.112002 -12.761104 -17.798570 47.901647 0.000066 104.739243 -0.000080 -12.495961 0.329408 -8.514418 -12.147431 -18.273951 -23.401941 3.091895 -9.793301 0.793528 -2.528695 1.906262 -3.616040 0.000000 -0.000000 -0.000002 0.210626 4.531617 -2.511012 0.013214 -0.429459 3.526259 0.000428 -0.077356 0.634699 0.000001 -0.000000 0.000000 -0.311785 6.474615 -7.063737 26.285986 -4.169746 3.272785 -20.368572 26.918858 5.859327 -7.230648 0.000036 0.000005 -0.000000 0.000002 0.000000 -14.624649 -8.031310 -17.025647 22.064079 -7.667461 -3.888247 4.430765 -10.162644 15.870624 -5.420337 -0.000005 0.000006 -0.000000 -0.000001 0.000000 
